<?xml version="1.0" encoding="UTF-8" standalone="no"?>
<svg
   viewBox="0 0 1921.5533 720.00004"
   version="1.1"
   id="svg54"
   sodipodi:docname="logo_menu.svg"
   width="1921.5533"
   height="720"
   inkscape:version="1.1 (c68e22c387, 2021-05-23)"
   xmlns:inkscape="http://www.inkscape.org/namespaces/inkscape"
   xmlns:sodipodi="http://sodipodi.sourceforge.net/DTD/sodipodi-0.dtd"
   xmlns="http://www.w3.org/2000/svg"
   xmlns:svg="http://www.w3.org/2000/svg">
  <sodipodi:namedview
     id="namedview56"
     pagecolor="#ffffff"
     bordercolor="#666666"
     borderopacity="1.0"
     inkscape:pageshadow="2"
     inkscape:pageopacity="0.0"
     inkscape:pagecheckerboard="0"
     showgrid="false"
     fit-margin-top="0"
     fit-margin-left="0"
     fit-margin-right="0"
     fit-margin-bottom="0"
     inkscape:zoom="0.36317923"
     inkscape:cx="788.86669"
     inkscape:cy="249.18826"
     inkscape:window-width="1920"
     inkscape:window-height="1017"
     inkscape:window-x="1912"
     inkscape:window-y="-8"
     inkscape:window-maximized="1"
     inkscape:current-layer="svg54" />
  <defs
     id="defs4">
    <style
       id="style2">.cls-1{fill:#fff;}</style>
  </defs>
  <path
     class="cls-1"
     d="m 197.21706,0 c 83.62003,111.70374 98.37186,138.13082 179.30974,251.01786 73.12807,100.02849 121.56458,189.95947 198.63699,288.33132 26.42711,33.44802 78.88682,76.2836 105.47169,109.73159 a 347.102,347.102 0 0 1 52.69641,63.10945"
     id="path40-4"
     style="fill:#1e1e1e;fill-opacity:1;stroke-width:7.88867" />
  <path
     class="cls-1"
     d="m 576.89935,119.90797 q -38.33901,2.60327 -39.44342,41.33669 -65.39718,95.37417 -135.13314,188.61839 C 321.54269,468.98215 282.41483,595.1222 221.67197,720"
     id="path42-7"
     style="fill:#1e1e1e;fill-opacity:1;stroke-width:7.88867" />
  <path
     class="cls-1"
     d="m 41.02116,288.01578 c 143.25846,63.10946 318.78161,97.50411 478.52743,136.4742 134.89647,32.89581 268.8463,49.38315 406.81932,70.99814"
     id="path44-3"
     style="fill:#1e1e1e;fill-opacity:1;stroke-width:7.88867" />
  <path
     class="cls-1"
     d="m 418.10013,106.18166 c -5.28538,76.52022 0.86779,163.76904 9.15091,240.05259 5.12763,66.65937 24.21822,139.31414 33.29021,205.81573 8.91421,41.17891 51.03978,122.74788 43.70331,155.88037"
     id="path46-2"
     style="fill:#8a8d92;fill-opacity:1;stroke-width:7.88867" />
  <path
     class="cls-1"
     d="m 0,278.86491 c 61.68949,13.01633 110.91488,35.65684 169.05448,54.03747 174.0243,55.22078 354.99067,63.81944 543.21463,74.07473"
     id="path48-7"
     style="fill:#1e1e1e;fill-opacity:1;stroke-width:7.88867" />
  <path
     class="cls-1"
     d="m 1508.9835,447.37267 h 58.8692 V 200.23882 h 84.5151 v -46.53188 h -227.4137 v 46.24045 h 84.0294 V 447.08124 M 1385.028,159.43842 a 220.22502,220.22502 0 0 0 -70.1378,-10.49153 c -51.7776,0 -102.5838,23.89738 -102.5838,89.46945 0,97.14381 128.6184,74.02358 128.6184,129.88127 0,26.52026 -29.8232,37.88609 -52.1663,37.88609 a 141.73282,141.73282 0 0 1 -66.3492,-18.06875 l -5.5372,52.94337 a 260.83113,260.83113 0 0 0 75.2865,11.36583 c 59.2577,0 110.161,-24.3831 110.161,-88.6923 0,-98.40667 -128.7155,-76.93789 -128.7155,-127.7441 0,-31.96032 26.1317,-40.8004 46.3376,-40.8004 a 150.96148,150.96148 0 0 1 59.6463,12.62869 l 5.44,-48.5719 m -284.9228,288.12853 h 58.7721 V 153.70694 h -58.7721 z m -204.00199,0 h 72.275 l 98.50389,-293.66573 h -58.2863 l -74.31499,230.32797 h -0.7772 L 858.02288,153.70694 h -63.14347 l 100.9324,293.3743 M 1814.6951,333.61727 h -85.778 l 42.4519,-121.13833 h 0.8743 z m 106.8582,113.46397 -115.3097,-293.3743 h -66.4464 l -114.3382,293.3743 h 60.9092 l 25.6459,-67.22352 h 118.904 l 25.2574,67.22352 h 65.1835"
     id="path50-0"
     style="fill:#1e1e1e;fill-opacity:1;stroke-width:9.71437" />
  <path
     fill-rule="evenodd"
     clip-rule="evenodd"
     fill="#827f80"
     d="m 1718.6218,600.96049 0.3983,-0.14758 0.3134,0.29132 c 0,4.13006 0,8.2601 0,12.39016 l -0.354,0.18434 -0.3909,-0.0627 c -2.3342,-4.22223 -2.3748,-8.44079 0.033,-12.65567 z"
     id="path6-3"
     style="fill:#1e1e1e;fill-opacity:1;stroke-width:3.68755" />
  <path
     id="path14-7"
     d="m 1310.3682,495.78467 c -0.4733,-0.007 -0.9467,10e-4 -1.4261,0.0148 -1.0226,0.0259 -2.0641,0.0944 -3.1113,0.20872 -17.6892,1.92859 -29.6802,14.91136 -29.3852,31.6971 0.2139,12.19842 5.9842,22.02966 13.3962,31.02729 2.4301,2.95005 1.6909,3.87477 -1.1596,5.56736 -19.592,11.64895 -28.7178,28.51822 -25.0782,51.52488 2.3342,14.74282 9.0901,26.17087 24.1131,30.8688 17.7261,5.5461 40.2606,1.69148 52.2451,-14.85824 1.2759,-1.75897 1.9394,-1.69344 3.0826,0.0368 2.9205,4.42505 5.9537,8.7819 8.9812,13.13693 0.7265,1.05093 1.2729,2.43066 2.8881,2.43434 5.0482,0.0114 10.0947,0 15.9025,0 -1.4565,-1.93596 -2.2981,-3.09931 -3.1905,-4.2277 -5.4982,-6.91789 -11.013,-13.83184 -16.5148,-20.74967 -1.0731,-1.35333 -2.1841,-2.41184 -1.0299,-4.60224 7.541,-14.27453 11.0019,-29.75489 12.9785,-45.63345 1.25,-10.00802 1.2326,-10.00617 -8.8012,-9.44935 -0.1476,0.0114 -0.2954,0.0142 -0.4393,0 -1.9397,-0.19175 -2.4701,0.81873 -2.6361,2.60719 -0.472,5.12939 -0.9642,10.27007 -1.7717,15.3552 -1.4935,9.43644 -3.6587,18.69943 -7.9657,28.276 -10.126,-14.12698 -19.6792,-27.56371 -29.3996,-40.90153 -1.4492,-1.98393 -0.6894,-2.62659 0.9147,-3.64436 4.8528,-3.08281 9.4738,-6.50814 13.6554,-10.46486 9.9601,-9.42539 14.9391,-20.91441 12.568,-34.62841 -2.4783,-14.33393 -14.1434,-23.41799 -28.8162,-23.59459 z m -1.4261,12.58953 c 1.1227,-0.009 2.2748,0.0726 3.4499,0.24473 9.3996,1.37546 15.5551,10.96419 13.6339,21.31147 -1.8807,10.14076 -8.4297,16.9181 -16.4428,22.60064 -6.0549,4.29229 -6.0692,4.26788 -10.3136,-1.90139 -6.6302,-9.63189 -9.1927,-15.88718 -9.2333,-22.53583 -0.067,-11.50263 8.0535,-19.65843 18.9059,-19.71979 z m -9.6366,63.29338 c 0.5756,0.0228 0.9706,0.50329 1.4477,1.17393 10.8561,15.22223 21.7219,30.4446 32.6334,45.62627 0.8702,1.21321 0.608,1.99442 -0.1368,3.097 -6.8699,10.14813 -22.4974,16.68003 -34.5852,14.39008 -13.3452,-2.52967 -22.7949,-15.01841 -22.1901,-31.07775 -0.1991,-14.41459 9.5979,-24.20223 21.5419,-32.69097 0.5338,-0.3789 0.9439,-0.53217 1.2892,-0.51856 z"
     style="fill:#1e1e1e;fill-opacity:1;stroke-width:3.68755" />
  <path
     id="path16-8"
     d="m 1047.9902,495.83507 c -20.1377,-0.21387 -35.8534,8.14024 -43.9697,26.81399 -13.72139,31.58022 -13.53499,64.05637 -1.6205,96.03482 7.6296,20.48434 23.5327,30.52934 45.6839,30.26384 21.6385,-0.25813 36.0952,-10.88499 44.3442,-30.45114 6.2357,-14.79815 7.9099,-30.42045 7.6776,-46.32489 0.214,-16.51285 -1.6707,-32.69854 -8.5923,-47.89494 -8.4666,-18.57419 -23.0683,-28.22042 -43.5232,-28.44168 z m 0.9291,12.45992 c 11.8524,0.41605 22.2221,7.1502 28.3481,18.93469 5.6235,10.82296 7.5742,22.56431 8.297,34.56359 0.2139,3.5253 0.037,7.07609 0.037,10.61615 0.2804,14.69858 -1.035,29.17727 -7.1158,42.81013 -9.82,22.03314 -36.3809,28.40364 -53.4911,12.82003 -5.476,-4.98928 -9.0589,-11.31251 -11.1203,-18.32254 -7.3529,-24.96105 -7.5269,-50.03437 0.1801,-74.9106 3.588,-11.58258 10.3943,-20.9333 22.6222,-24.77572 4.1799,-1.31279 8.2931,-1.87442 12.2439,-1.73573 z"
     style="fill:#1e1e1e;fill-opacity:1;stroke-width:3.68755" />
  <path
     fill-rule="evenodd"
     clip-rule="evenodd"
     fill="#231f20"
     d="m 1498.8917,518.04589 c -7.7513,-4.6205 -15.0379,-7.27921 -22.708,-8.66575 -21.0485,-3.80924 -41.2858,5.34695 -50.7296,24.60705 -13.0503,26.6278 -12.475,53.77555 2.0466,79.68798 13.5407,24.16821 40.858,25.83869 57.2898,20.25205 3.1639,-1.07677 4.602,-2.47066 4.5246,-6.2246 -0.2913,-14.59165 -0.3061,-29.19433 0,-43.78598 0.085,-4.15956 -1.2722,-4.89706 -4.9782,-4.72375 -6.3278,0.29499 -12.6778,0.0293 -19.0167,0.11424 -2.1166,0.0333 -3.0201,-0.35769 -3.0643,-2.87628 -0.1587,-9.65403 -0.2804,-9.65032 9.2373,-9.65032 9.1414,0.003 18.2829,0.0775 27.4243,-0.0405 2.6219,-0.0367 3.8572,0.3024 3.8351,3.48105 -0.155,22.55677 -0.1843,45.11721 0.017,67.67765 0.029,3.5474 -2.1978,4.08949 -4.3845,5.05931 -39.715,17.60805 -78.8362,0.0479 -91.4034,-41.42963 -7.2054,-23.78841 -6.9068,-47.48829 4.4103,-70.15936 14.1049,-28.25772 40.906,-40.5852 71.8925,-33.51986 4.4583,1.01777 8.828,2.33054 13.0908,4.02312 1.9213,0.76701 2.6772,1.82534 2.5703,3.94568 -0.1918,3.77604 -0.059,7.57055 -0.059,12.22791 z"
     id="path18-6"
     style="fill:#1e1e1e;fill-opacity:1;stroke-width:3.68755" />
  <path
     id="path22-5"
     d="m 1583.4415,497.35475 c -0.271,-8.5e-4 -0.5616,0.0185 -0.8787,0.0649 -1.298,0.18439 -2.6518,0.0295 -3.9757,0.0295 -7.1722,0.004 -7.1804,0.003 -9.4925,6.95739 -14.8461,44.71155 -29.6928,89.42311 -44.5315,134.13467 -2.9537,8.89806 -2.9348,8.7482 6.2804,9.01002 3.1897,0.0886 4.6046,-0.7836 5.5745,-3.91803 3.5253,-11.39822 7.433,-22.68384 11.1058,-34.03783 0.6896,-2.13878 1.3725,-3.41806 4.1197,-3.39225 17.8478,0.15499 35.6938,0.15499 53.5416,0 2.714,-0.0256 3.4594,1.16637 4.1268,3.33464 2.9132,9.42539 5.9104,18.82993 8.9452,28.21842 3.2819,10.15552 3.3113,10.02771 13.9868,9.78064 3.1307,-0.0738 3.2261,-0.89845 2.3263,-3.5867 -15.9855,-47.76852 -31.8881,-95.57292 -47.7077,-143.39679 -0.6872,-2.08118 -1.5236,-3.19176 -3.421,-3.19781 z m -4.2061,15.93138 c 3.5142,11.35026 6.9841,22.55066 10.4504,33.74976 4.3882,14.19706 8.6875,28.42335 13.2306,42.57249 1.0915,3.39623 0.5064,4.21804 -3.1258,4.17009 -14.5843,-0.19915 -29.1657,-0.10171 -43.7537,-0.0575 -2.2752,0.009 -3.6202,-0.0766 -2.6504,-3.09694 8.0167,-24.93156 15.8965,-49.90651 23.8394,-74.86018 0.2507,-0.78178 0.2171,-1.79541 2.0095,-2.47759 z"
     style="fill:#1e1e1e;fill-opacity:1;stroke-width:3.68755" />
  <path
     fill-rule="evenodd"
     clip-rule="evenodd"
     fill="#221f20"
     d="m 1718.6218,600.96049 c -0.011,4.22226 -0.023,8.43712 -0.033,12.65938 -2.2568,23.46757 -22.1143,38.31735 -46.8614,35.02804 -6.3058,-0.84075 -12.475,-2.14246 -18.2718,-4.93763 -2.2532,-1.08415 -3.459,-2.25308 -3.0533,-5.0335 0.5531,-3.86088 0.6084,-7.78812 0.9145,-12.24267 7.4599,5.99226 15.4434,9.46226 24.5369,9.89369 10.6423,0.5089 19.6141,-2.68454 24.9242,-12.55609 5.5903,-10.39524 5.5719,-20.88261 -0.826,-31.01602 -3.7023,-5.86319 -9.2521,-9.83101 -14.8019,-13.75825 -8.887,-6.29465 -18.0616,-12.14309 -25.9382,-19.85008 -14.5289,-14.21185 -14.1749,-47.48462 6.8773,-57.95726 14.5105,-7.22023 29.2828,-6.66341 44.2101,-1.34964 1.5561,0.55313 1.9986,1.46027 1.9027,2.96479 -0.2692,4.10055 -0.4867,8.20848 -0.7522,12.81054 -6.3537,-3.28928 -12.346,-6.49007 -19.2601,-6.87729 -2.644,-0.14758 -5.3322,-0.38348 -7.9393,-0.059 -19.131,2.37109 -27.4206,22.46454 -15.6869,37.88222 4.2592,5.60137 9.997,9.53231 15.5468,13.68081 8.4961,6.34996 17.2688,12.36068 24.7066,20.01234 5.6272,5.77838 9.2188,12.53031 9.8052,20.70559 z"
     id="path24-3"
     style="fill:#1e1e1e;fill-opacity:1;stroke-width:3.68755" />
  <path
     fill-rule="evenodd"
     clip-rule="evenodd"
     fill="#232021"
     d="m 1167.296,572.07591 c 0,-23.43439 0.066,-46.87247 -0.081,-70.30687 -0.023,-3.41098 0.7411,-4.51725 4.3291,-4.42137 9.123,0.25074 9.1267,0.0627 9.1267,9.19308 0.01,41.27107 0.059,82.54215 -0.07,123.8169 -0.011,3.60644 0.8187,4.75694 4.5652,4.69426 13.5592,-0.22878 27.122,0.0143 40.6811,-0.16581 3.186,-0.0442 3.9236,0.95876 3.894,3.98254 -0.089,8.59937 0.044,8.59199 -8.5071,8.58831 -16.063,-0.003 -32.1334,-0.15869 -48.1963,0.10314 -4.414,0.0738 -5.9259,-0.79284 -5.8669,-5.61984 0.2876,-23.28318 0.129,-46.57378 0.1253,-69.86434 z"
     id="path26-0"
     style="fill:#1e1e1e;fill-opacity:1;stroke-width:3.68755" />
  <path
     fill-rule="evenodd"
     clip-rule="evenodd"
     fill="#231f20"
     d="m 1131.6705,647.20609 c -12.1099,1.1284 -12.1099,1.1284 -12.1099,-10.77871 0,-44.49033 0.085,-88.98801 -0.1328,-133.48201 -0.026,-4.82331 1.4714,-6.27621 5.8264,-5.47601 2.4559,0.44988 5.1736,-1.22795 7.4009,0.94401 -1.0326,1.47502 -0.5126,3.14917 -0.5126,4.72007 -0.033,46.43365 -0.023,92.87099 -0.048,139.30463 0,1.58934 0.4167,3.24506 -0.424,4.76802 z"
     id="path28-4"
     style="fill:#1e1e1e;fill-opacity:1;stroke-width:3.68755" />
  <path
     fill-rule="evenodd"
     clip-rule="evenodd"
     fill="#0b0a0a"
     d="m 1131.6705,647.20609 c 0.01,-47.78699 0,-95.57765 0.055,-143.36464 0,-1.81428 -0.7854,-3.86824 0.9293,-5.42808 0.085,1.46027 0.247,2.92055 0.247,4.38082 0.011,46.79134 0.017,93.58267 -0.063,140.37403 0,1.32752 1.2132,3.29666 -1.169,4.03787 z"
     id="path30-0"
     style="fill:#1e1e1e;fill-opacity:1;stroke-width:3.68755" />
</svg>
